<?xml version="1.0" encoding="UTF-8"?>
<svg xmlns="http://www.w3.org/2000/svg" xmlns:xlink="http://www.w3.org/1999/xlink" width="470.95pt" height="411.23pt" viewBox="0 0 470.95 411.23" version="1.1">
<defs>
<clipPath id="clip1">
  <path d="M 389 321 L 470.949219 321 L 470.949219 389 L 389 389 Z M 389 321 "/>
</clipPath>
<clipPath id="clip2">
  <path d="M 0 299 L 86 299 L 86 411.230469 L 0 411.230469 Z M 0 299 "/>
</clipPath>
</defs>
<g id="surface1">
<path style=" stroke:none;fill-rule:nonzero;fill:rgb(13.699341%,67.098999%,88.598633%);fill-opacity:1;" d="M 211.035156 83.074219 C 230.058594 78.210938 246.511719 58.269531 246.242188 36.585938 C 246.292969 25.453125 242.839844 15.617188 234.472656 8.078125 C 222.3125 -2.878906 204.121094 -1.863281 191.363281 6.160156 C 180.113281 13.234375 172.859375 23.277344 169.59375 36.050781 C 166.289063 48.957031 167.988281 61.210938 176.050781 72.101563 C 183.28125 81.867188 198.300781 86.324219 211.035156 83.074219 "/>
<path style=" stroke:none;fill-rule:nonzero;fill:rgb(13.699341%,67.098999%,88.598633%);fill-opacity:1;" d="M 263.003906 145.039063 C 258.941406 132.582031 241.304688 87.605469 198.433594 87.605469 C 148.671875 87.605469 98.417969 140.816406 91.519531 187.621094 C 84.621094 234.429688 104.328125 281.234375 116.648438 291.089844 C 116.648438 291.089844 97.925781 229.007813 120.097656 184.175781 C 126.496094 171.230469 136.429688 159.40625 148.136719 150.554688 C 148.269531 148.765625 148.570313 146.953125 149.039063 145.117188 C 151.074219 137.164063 155.589844 130.910156 162.59375 126.503906 C 170.539063 121.511719 181.863281 120.878906 189.433594 127.699219 C 191.757813 129.792969 193.46875 132.171875 194.652344 134.78125 C 211.691406 135.957031 228.222656 145.492188 240.679688 167.210938 C 246.507813 158.742188 253.949219 151.335938 263.003906 145.039063 "/>
<path style=" stroke:none;fill-rule:nonzero;fill:rgb(13.699341%,67.098999%,88.598633%);fill-opacity:1;" d="M 268.675781 217.308594 C 274.628906 217.394531 279.886719 215.878906 283.921875 212.117188 C 289.78125 206.652344 289.242188 198.378906 284.957031 192.539063 C 281.179688 187.386719 275.8125 184.035156 268.984375 182.476563 C 262.085938 180.90625 255.535156 181.609375 249.710938 185.214844 C 244.488281 188.445313 242.101563 195.246094 243.835938 201.050781 C 246.429688 209.722656 257.085938 217.3125 268.675781 217.308594 "/>
<path style=" stroke:none;fill-rule:nonzero;fill:rgb(23.498535%,37.998962%,67.098999%);fill-opacity:1;" d="M 194.652344 134.78125 C 193.46875 132.171875 191.757813 129.792969 189.433594 127.699219 C 181.863281 120.878906 170.535156 121.511719 162.59375 126.503906 C 155.589844 130.910156 151.074219 137.164063 149.039063 145.117188 C 148.570313 146.953125 148.269531 148.765625 148.136719 150.554688 C 147.679688 156.59375 149.1875 162.328125 153.058594 167.5625 C 157.5625 173.644531 166.914063 176.421875 174.84375 174.394531 C 186.6875 171.367188 196.929688 158.953125 196.765625 145.449219 C 196.78125 141.609375 196.125 138.019531 194.652344 134.78125 "/>
<path style=" stroke:none;fill-rule:nonzero;fill:rgb(23.498535%,37.998962%,67.098999%);fill-opacity:1;" d="M 223.929688 189.347656 C 171.757813 162.265625 141.898438 191.6875 141.898438 191.6875 C 105.683594 221.617188 131.179688 267.4375 131.179688 267.4375 C 133.769531 174.320313 223.929688 189.347656 223.929688 189.347656 "/>
<path style=" stroke:none;fill-rule:nonzero;fill:rgb(65.098572%,78.399658%,26.298523%);fill-opacity:1;" d="M 296.3125 125.9375 C 309.535156 129.363281 320.9375 121.050781 325.410156 109.578125 C 329.355469 99.457031 329.253906 88.699219 325.234375 77.484375 C 321.171875 66.148438 314.160156 57.390625 303.644531 52.316406 C 294.214844 47.769531 282.246094 50.539063 275.492188 58.324219 C 265.40625 69.949219 264.257813 92.160156 274.882813 108.792969 C 280.214844 117.410156 287.210938 123.578125 296.3125 125.9375 "/>
<path style=" stroke:none;fill-rule:nonzero;fill:rgb(65.098572%,78.399658%,26.298523%);fill-opacity:1;" d="M 351.324219 144.050781 C 328.335938 124.746094 293.9375 126.535156 269.820313 140.667969 C 267.449219 142.058594 265.1875 143.519531 263.003906 145.039063 C 253.949219 151.335938 246.507813 158.742188 240.679688 167.210938 C 235.304688 175.027344 231.289063 183.738281 228.652344 193.332031 C 222.410156 216.070313 225.617188 237.65625 240.867188 256.84375 C 254.535156 274.050781 282.933594 281.910156 307.011719 276.175781 C 324.597656 271.988281 341.007813 261.441406 353.144531 247.296875 C 350.417969 247.726563 347.515625 248.101563 344.4375 248.390625 C 343.296875 249.789063 342.113281 251.171875 340.855469 252.511719 C 315.179688 279.816406 274.648438 283.410156 250.324219 260.542969 C 226 237.671875 227.09375 196.996094 252.769531 169.691406 C 278.445313 142.386719 318.976563 138.789063 343.300781 161.660156 C 360.78125 178.097656 365.136719 203.734375 356.664063 226.992188 C 359.4375 227.613281 362.230469 228.503906 364.945313 229.761719 C 370.550781 218.792969 373.742188 206.699219 373.578125 194.273438 C 373.675781 174.664063 367.148438 157.335938 351.324219 144.050781 "/>
<path style=" stroke:none;fill-rule:nonzero;fill:rgb(13.699341%,67.098999%,88.598633%);fill-opacity:1;" d="M 364.945313 229.761719 C 362.230469 228.503906 359.4375 227.613281 356.664063 226.992188 C 347.230469 224.875 338.070313 225.851563 333.308594 226.054688 C 324.621094 226.421875 313.535156 230.117188 284.53125 226.054688 C 255.523438 221.988281 237.601563 200.554688 237.601563 200.554688 C 254.414063 232.335938 289.703125 242.679688 289.703125 242.679688 C 310.429688 249.148438 329.414063 249.800781 344.4375 248.390625 C 347.511719 248.101563 350.417969 247.726563 353.144531 247.296875 C 368.671875 244.851563 378.203125 240.648438 378.203125 240.648438 C 374.453125 235.449219 369.828125 232.019531 364.945313 229.761719 "/>
<g clip-path="url(#clip1)" clip-rule="nonzero">
<path style=" stroke:none;fill-rule:nonzero;fill:rgb(16.099548%,48.199463%,74.899292%);fill-opacity:1;" d="M 439.789063 369.890625 C 435.113281 374.785156 429.792969 378.550781 423.050781 379.96875 C 410.15625 382.683594 401.765625 374.3125 404.347656 361.34375 C 407.421875 345.929688 420.851563 333.03125 436.523438 330.398438 C 442.457031 329.398438 448.355469 329.023438 454.890625 330.835938 C 450.972656 344.644531 450.132813 359.046875 439.789063 369.890625 M 460.753906 322.199219 C 447.167969 320.6875 433.714844 320.96875 420.886719 326.367188 C 405.472656 332.847656 394.3125 343.347656 390.339844 360.195313 C 386.921875 374.695313 394.628906 386.964844 408.191406 388.605469 C 422.765625 390.371094 434.816406 385.6875 444.105469 374.195313 C 444.890625 373.222656 445.777344 372.335938 446.617188 371.40625 C 446.78125 373.859375 446.28125 375.804688 445.695313 377.71875 C 443.464844 385.027344 447.984375 389.746094 455.835938 388.125 C 456.070313 386.03125 456.097656 383.847656 456.589844 381.773438 C 460.636719 364.683594 464.746094 347.613281 468.898438 330.546875 C 469.398438 328.492188 470.253906 326.519531 470.945313 324.507813 L 470.945313 323.742188 C 467.550781 323.222656 464.167969 322.578125 460.753906 322.199219 "/>
</g>
<path style=" stroke:none;fill-rule:nonzero;fill:rgb(16.099548%,48.199463%,74.899292%);fill-opacity:1;" d="M 299.609375 370.007813 C 293.945313 375.988281 287.4375 380.554688 278.796875 380.726563 C 268.84375 380.925781 263.664063 375.714844 263.707031 363.171875 C 264.714844 350.816406 272.976563 340.851563 285.800781 334.253906 C 293.972656 330.046875 302.792969 329.113281 311.824219 330.519531 C 312.667969 330.652344 314.097656 332.195313 313.953125 332.742188 C 310.542969 345.683594 309.480469 359.582031 299.609375 370.007813 M 327.601563 323.496094 C 311.941406 320.867188 296.355469 320.390625 281.296875 326.414063 C 265.652344 332.671875 254.21875 343.128906 250.0625 360.070313 C 246.527344 374.480469 253.046875 386.101563 266.078125 388.589844 C 280.398438 391.324219 292.496094 387.085938 302.238281 376.214844 C 303.566406 374.738281 304.839844 373.210938 306.140625 371.710938 L 306.980469 372.105469 C 306.425781 373.976563 305.914063 375.859375 305.304688 377.710938 C 303.300781 383.761719 305.566406 387.441406 311.90625 388.5625 C 314.320313 388.988281 315.289063 388.066406 315.789063 385.722656 C 318.425781 373.417969 321.117188 361.125 323.953125 348.863281 C 325.839844 340.710938 328 332.621094 330.058594 324.417969 C 329.007813 324.015625 328.328125 323.617188 327.601563 323.496094 "/>
<g clip-path="url(#clip2)" clip-rule="nonzero">
<path style=" stroke:none;fill-rule:nonzero;fill:rgb(16.099548%,48.199463%,74.899292%);fill-opacity:1;" d="M 50.539063 307.40625 C 59.855469 307.363281 69.175781 307.40625 78.492188 307.390625 C 83.65625 307.382813 85.894531 305 85.863281 299.496094 C 85.398438 299.410156 84.90625 299.238281 84.417969 299.238281 C 67.949219 299.230469 51.480469 299.136719 35.015625 299.289063 C 28.9375 299.347656 25.128906 302.964844 23.578125 309.195313 C 19.589844 325.238281 15.589844 341.28125 11.574219 357.320313 C 7.808594 372.378906 4.011719 387.429688 0.246094 402.488281 C -0.722656 406.378906 1.222656 409.71875 4.960938 410.722656 C 9.867188 412.046875 12.125 410.847656 13.253906 406.289063 C 17.105469 390.730469 21.003906 375.179688 24.742188 359.597656 C 25.449219 356.652344 26.617188 355.484375 29.871094 355.5625 C 40.460938 355.808594 51.058594 355.660156 61.65625 355.652344 C 67.925781 355.644531 70.390625 353.296875 71.035156 346.222656 L 28.238281 346.222656 C 30.625 336.777344 32.769531 328.039063 35.050781 319.335938 C 37.15625 311.296875 42.203125 307.445313 50.539063 307.40625 "/>
</g>
<path style=" stroke:none;fill-rule:nonzero;fill:rgb(16.099548%,48.199463%,74.899292%);fill-opacity:1;" d="M 144.59375 354.210938 C 141.554688 367.683594 133.472656 376.855469 119.675781 380.265625 C 118.089844 380.660156 116.410156 380.675781 114.773438 380.867188 C 100.25 380.726563 92.070313 370.570313 95.019531 356.207031 C 98.144531 340.996094 110.507813 329.804688 124.382813 329.625 C 139.511719 329.433594 147.941406 339.371094 144.59375 354.210938 M 137.144531 322.59375 C 130.25 321.421875 122.769531 321.335938 115.933594 322.667969 C 99.125 325.941406 86.847656 335.449219 81.5625 352.3125 C 76.332031 369 84.070313 382.9375 100.890625 387.46875 C 104.789063 388.515625 108.921875 388.695313 112.945313 389.273438 L 112.996094 388.949219 C 115.167969 388.851563 117.339844 388.78125 119.503906 388.652344 C 136.445313 387.640625 152.796875 375.238281 158.203125 359.320313 C 164.257813 341.484375 155.5625 325.738281 137.144531 322.59375 "/>
<path style=" stroke:none;fill-rule:nonzero;fill:rgb(16.099548%,48.199463%,74.899292%);fill-opacity:1;" d="M 225.621094 322.417969 C 212.144531 320.078125 200.449219 323.941406 190.390625 333.0625 C 189.546875 333.824219 188.679688 334.554688 187.828125 335.300781 L 187.164063 334.789063 C 187.867188 330.578125 188.570313 326.363281 189.394531 321.433594 C 186.265625 321.433594 183.496094 321.621094 180.761719 321.382813 C 177.839844 321.132813 176.871094 322.433594 176.261719 325.117188 C 172.746094 340.492188 169.039063 355.824219 165.40625 371.171875 C 164.070313 376.8125 162.757813 382.460938 161.289063 388.71875 C 165.296875 388.71875 168.710938 388.632813 172.113281 388.75 C 174.300781 388.824219 175.226563 387.960938 175.726563 385.804688 C 177.898438 376.382813 180.203125 366.992188 182.570313 357.617188 C 185.914063 344.371094 193.761719 335.050781 207.070313 331.21875 C 220.570313 327.328125 228.265625 334.621094 225.289063 348.257813 C 223.117188 358.199219 220.5625 368.058594 218.179688 377.953125 C 216.550781 384.714844 219.835938 388.914063 226.769531 388.578125 C 227.867188 388.523438 229.605469 387.238281 229.855469 386.226563 C 233.417969 371.785156 237.109375 357.359375 240.070313 342.785156 C 242.242188 332.113281 236.371094 324.289063 225.621094 322.417969 "/>
<path style=" stroke:none;fill-rule:nonzero;fill:rgb(16.099548%,48.199463%,74.899292%);fill-opacity:1;" d="M 360.214844 322.171875 C 353.386719 323.199219 347.148438 325.683594 342.421875 331.011719 C 336.679688 337.476563 336.9375 345.734375 343.4375 351.378906 C 346.277344 353.839844 349.855469 355.453125 353.117188 357.417969 C 356.265625 359.316406 359.800781 360.761719 362.519531 363.144531 C 367.191406 367.234375 366.609375 373.605469 361.644531 377.363281 C 357.464844 380.527344 352.546875 381.5 347.527344 380.910156 C 341.910156 380.253906 336.375 378.933594 330.539063 377.851563 C 329.46875 380.007813 328.3125 382.332031 327.09375 384.789063 C 328.339844 385.390625 329.097656 385.871094 329.921875 386.144531 C 338.9375 389.121094 348.15625 389.589844 357.484375 388.152344 C 364.171875 387.125 370.359375 384.878906 375.164063 379.855469 C 382.289063 372.414063 381.648438 362.414063 373.421875 356.253906 C 370.1875 353.832031 366.378906 352.179688 362.835938 350.179688 C 360.511719 348.863281 357.992188 347.800781 355.898438 346.183594 C 351.054688 342.449219 351.042969 336.316406 356.175781 333.035156 C 358.953125 331.257813 362.5 329.882813 365.734375 329.804688 C 371.242188 329.679688 376.773438 330.722656 382.890625 331.332031 C 383.703125 329.671875 384.859375 327.3125 386.277344 324.417969 C 377.425781 321 368.851563 320.875 360.214844 322.171875 "/>
</g>
</svg>
